<svg xmlns="http://www.w3.org/2000/svg" xmlns:xlink="http://www.w3.org/1999/xlink" viewBox="0 0 692.78 119.85"><defs><style>.cls-1{fill:url(#radial-gradient);}</style><radialGradient id="radial-gradient" cx="346.39" cy="59.92" r="297.07" gradientTransform="translate(0 -0.03)" gradientUnits="userSpaceOnUse"><stop offset="0" stop-color="#e4a798"/><stop offset="1" stop-color="#925d4f"/></radialGradient></defs><title>2Asset 2</title><g id="Layer_2" data-name="Layer 2"><g id="Layer_1-2" data-name="Layer 1"><path class="cls-1" d="M174,95.55A41.55,41.55,0,0,0,170.53,93c4.5-3.93,7.13-8.39,4.64-14.26s-7.43-7.34-13.21-7.29c-4,0-8,.18-11.91,0-3.22-.17-4.47.74-4.41,4.25.06,3.71.09,7.43.1,11.14q.06,12.51,0,25c0,1.65-.14,3.35-.07,5,0,.69.33,1.59,1.12,1.67a1.14,1.14,0,0,0,1.18-1.06,13.09,13.09,0,0,0,0-2.17q0-7.84,0-15.71,0-6.56,0-13.1,0-3.27,0-6.54c0-1.53-.76-6.83,2.2-6.35,1,.16,1.14.88,1.21,1.63s-.06,1.8,0,2.53c.11,12.39.07,24.78.06,37.17,0,1.91-.32,4,2.65,3.93,4.74-.19,9.51.52,14.24-.5,5.54-1.2,8.79-4.61,10.1-10C179.71,103,177.71,99,174,95.55Zm-10.51-22c6.37.4,10.71,4.52,10.45,9.93s-4.56,8.8-10.83,8.83c-9.61.06-9.61.06-9.61-9.52C153.49,72.87,153.49,72.87,163.48,73.5Zm12.81,34.25c-.71,4.35-3.36,7-7.44,8.31a16.15,16.15,0,0,1-3.26.59c-12.1,1.33-12.1,1.33-12.1-11.32V103.9c0-10.39,0-10.39,11.67-9.4C173.15,95.17,177.49,100.34,176.29,107.75Zm333.25-8.16c.55.22.94.91,1.27,1.37a25.79,25.79,0,0,1,2.39,3.33c.79,1.09,1.6,2.16,2.4,3.25,1.66,2.24,3.29,4.5,4.81,6.84l.05.08c.52.8,1.06,1.58,1.58,2.38s2.07,2.28.63,2.87a1.85,1.85,0,0,1-2.19-.57c-.73-1-.79-2.57-2.32-2.69a9.08,9.08,0,0,0-3.39.79c-9.66,3.06-20-.88-25.78-9.36a23.54,23.54,0,0,1,1.08-27.44c5.48-7.21,16.23-10.45,25.14-7.59,10,3.22,16.65,11.79,16.6,21.85,0,4.46-.86,9-3.78,12.48-1.17,1.39-2.17,3.13-1.61,5a6.57,6.57,0,0,0,1.37,2.32,14.56,14.56,0,0,1,1.66,1.93c.45.77.35,1.93-.8,2-.75,0-1.18-.7-1.53-1.25-.62-.93-1.2-1.88-1.87-2.77q-1.41-1.84-2.81-3.7-2-2.67-3.82-5.43c-.63-.94-1.25-1.89-1.87-2.85-.31-.48-.6-1-.92-1.44s-.6-.74-.5-1.19.84-.71,1.31-.63a3.13,3.13,0,0,1,1.94,1.66c1.24,1.91,2.3,3.93,3.47,5.88a3.78,3.78,0,0,0,1.05,1.23,1.85,1.85,0,0,0,2.64-.65A20.81,20.81,0,0,0,529.46,94a21.09,21.09,0,0,0-4.94-12.67,16.49,16.49,0,0,0-1.36-1.41c-8.22-7.7-19.92-8-28.89-.69-7.32,6-9.19,17.13-4.34,25.88,5.06,9.12,16.27,13.44,25.64,10a2.43,2.43,0,0,0,1.4-1c.32-.67-.2-1.43-.57-2l-4.2-5.86a61,61,0,0,1-3.91-5.78c-.35-.64.39-1,.94-1A.82.82,0,0,1,509.54,99.59ZM238.86,72a1.1,1.1,0,0,1,1.27.48c.43.71.13,1.73.08,2.5-.28,4.24-.07,8.53-.06,12.77s0,8.73,0,13.1c0,3.89,0,7.77-.11,11.66-.05,3.24.64,4.41,4.11,4.22,3-.16,6-.18,9-.16l5.59,0c.72,0,1.45-.09,2.17-.08.23,0,.78-.07,1,.1s.36,1.6.45,2a.49.49,0,0,1,0,.27c-.18.31-1.51.07-1.82.07-4.14-.07-8.28.06-12.43,0s-8.29,0-12.44.11c-3,.09-3.76-1.1-3.74-3.84.08-13.33,0-26.66.06-40,0-1.11-.55-3.06,1.29-2.93.81,0,1.06.52,1.09,1.23,0,1.09,0,2.18,0,3.27V96.46l0,17.53a2.93,2.93,0,0,0,.62,2.22,1.61,1.61,0,0,0,2.53-.61,2.93,2.93,0,0,0,.11-1v-40a4.12,4.12,0,0,1,.31-1.91A1.66,1.66,0,0,1,238.86,72Zm-170,4c-.09,4.13-.17,8.27,0,12.39.12,2.53-.75,3.24-3.23,3.18a173.43,173.43,0,0,0-18.1.07c-4.76.37-6.4-1-5.88-5.85.48-4.55.1-9.19.1-13.78H40.25c-1,5.81-.7,43.28.4,46.5,1.77-.86,1.05-2.48,1.08-3.76.09-4.13.17-8.27,0-12.39-.12-2.55.77-3.28,3.25-3.17,4.28.19,8.58,0,12.87,0,11,0,10.9,0,11.06,11.17,0,2.72-1.18,5.78,1.79,9.15v-48C68.12,72.74,68.88,74.53,68.85,76ZM66.06,97.24c-3.48,0-7,0-10.44,0v0c-3.8,0-7.59,0-11.39,0-1.32,0-2.49,0-2.47-1.89s1.09-1.94,2.47-1.94q10.92,0,21.83,0c1.57,0,2.88.14,2.77,2.2S67.25,97.24,66.06,97.24ZM328.75,71.46c-12.62.16-23.5,11-23.68,23.6s11.17,24,23.82,23.94c12.43,0,23.47-11,23.67-23.6S341.26,71.3,328.75,71.46Zm.23,45a21.37,21.37,0,0,1-21.47-21.72c.08-11.56,9.51-20.69,21.37-20.67a20.91,20.91,0,0,1,21.23,20.82A21.3,21.3,0,0,1,329,116.49Zm54.67-45c-12.55-.42-24.06,11-24,23.78s10.89,23.64,23.49,23.75c12.45.11,23.7-11,23.82-23.57S396.42,71.9,383.65,71.47Zm-.1,45.07A21.2,21.2,0,0,1,362.1,95.32a20.7,20.7,0,0,1,20.75-21.23c12-.15,22,9.25,22,20.75A22,22,0,0,1,383.55,116.54ZM187.79,118l-.45,1.21a1.1,1.1,0,0,1-.24.42.74.74,0,0,1-1.06-.22,1.9,1.9,0,0,1-.2-1.2,20.33,20.33,0,0,1,1.55-5.63L202.26,73.7c.3-.78.8-1.71,1.64-1.69s1.27.89,1.56,1.63L215,97.85l7.48,18.9a1.5,1.5,0,0,1,.05,1.42,1,1,0,0,1-1.38,0,2.91,2.91,0,0,1-.8-1.29l-15.6-39.06a1.87,1.87,0,0,0-.57-.87c-1.22-.88-1.67,1.56-1.65,2.25a13.3,13.3,0,0,0,1.08,4.51Q210,99.43,216,115.27a4.19,4.19,0,0,1,.29,3.1c-.15.32-.51.84-.92.66s-.4-.76-.52-1c-.62-1.44-1.09-2.94-1.68-4.4l-2.31-5.78q-2.33-5.79-4.64-11.59c-1.75-4.37-3.49-8.74-5.3-13.09ZM568.37,72c.16,1.54,0,3.17.07,4.73s.11,3.2.18,4.79c.13,3.2.3,6.4.39,9.6a92.7,92.7,0,0,1-1,19.12l-.24,1.23c-1.15,5.71-8.31,8.43-15.86,7.44-5.81-.77-10.5-5.14-10.63-11-.15-6.44-.17-12.87-.15-19.31,0-3.23,0-6.47,0-9.71,0-1.63,0-3.26,0-4.9,0-.63-.1-1.26-.06-1.9s.81-.51,1.2-.43c.76.16,1.13.52,1,1.33a21.71,21.71,0,0,0-.19,2.8c.08,9.85,0,19.7.06,29.55,0,7.68,3.66,11.18,11.42,11.31,8.12.13,11.92-3.26,12-11.18.1-6.55.07-13.1.07-19.64,0-4.28.29-8.65-.45-12.88a1.2,1.2,0,0,1,0-.65c.12-.33.45-.32.74-.33C567.12,72,568.37,72,568.37,72ZM448,112.89c0-4.38,0-2.35,0-3.43,0-1.9,0-3.66,0-5.72,0-3.19.22-6.61.22-9.8,0-4.3-.19-8.61-.19-12.91-.09-2.13-.21-4.25-.39-6.37v-.13c0-.13,0-.26,0-.39-.06-.71-.12-2.24.94-2.21a1.16,1.16,0,0,1,.84.48c.7.89.49,2,.5,3.07q.06,13.09,0,26.18c0,3,0,6,0,9,0,1.52,0,3,.06,4.56,0,.93.2,2.51-.59,3.2-1.35,1.17-2.31-1.32-2.89-2.13q-7.67-10.57-15.3-21.19-3.82-5.3-7.63-10.6l-4.19-5.82a41.3,41.3,0,0,1-3.71-5.49c-.52-1,1.29-1.52,1.92-.85a5.92,5.92,0,0,1,.88,1.55,21.38,21.38,0,0,0,1.91,2.81l3.84,5.3,7.7,10.59,7.61,10.48,3.85,5.3c.94,1.3,1.89,2.58,2.71,4C446.5,113.06,448.05,114,448,112.89ZM417.22,87.06a.87.87,0,0,0-.14.57c0,4,.09,8.08.09,12.12v13.11c0,.48,0,5.76,0,5.76l-1.62,0v-7.53c0-8.63.24-17.29,0-25.91,0-1-.54-2.74.6-3.27s1.73.55,2.22,1.24q7.59,10.64,15.13,21.3,2.49,3.51,5,7L441,115c.46.64,2.28,3.44.76,4-.83.3-1.53-1.18-1.82-1.72a34.25,34.25,0,0,0-2.17-3.31L434,108.72l-7.53-10.46c-1.48-2-2.89-4-4.33-6-.68-1-1.39-1.89-2.06-2.85C419.73,88.92,418.08,85.9,417.22,87.06ZM.09,77.58H30.32c-1.62,2.1-3.66,1.55-5.53,1.56-8.56,0-8.56,0-8.56,8.79s0,17.45,0,26.17c0,1.48.55,3.12-.74,4.48-2.18-.85-1.25-2.72-1.27-4.08-.08-10.47-.15-20.94,0-31.41,0-3-.64-4.27-3.88-4-3.43.28-6.89.06-10.34.06ZM.07,72h30.1v1.06H0Zm106.3,22a2.34,2.34,0,0,1-1.24.28l-18.35-.07a2.35,2.35,0,0,0-1.57.36,2.27,2.27,0,0,0,.17,3.21,4.61,4.61,0,0,0,2.34.2l2.82,0,5.64,0c2,0,3.91,0,5.87-.07,1.7,0,3.65-.37,5,.87a.58.58,0,0,1,.22.54.48.48,0,0,1-.14.25c-.8.91-2.19,1-3.32,1-1.62.08-3.26,0-4.89,0-3.26,0-6.51-.06-9.77-.18-.74,0-1.47,0-2.21,0s-1.34-.06-1.84.47a2.53,2.53,0,0,0-.46,1.78l0,11.94a2.76,2.76,0,0,0,.31,1.56c.5.78,1.59.86,2.52.85l22.6-.08a3.89,3.89,0,0,1,2.29.47,1.34,1.34,0,0,1,.27,2,1.88,1.88,0,0,1-1.22.28H86.13a2.8,2.8,0,0,1-3.53-3.35c0-6.52,0-13,0-19.57s0-13.11,0-19.66c0-.76,0-1.51,0-2.26a2.77,2.77,0,0,1,.24-1.62,3.12,3.12,0,0,1,2.8-1.07h24.26a5.13,5.13,0,0,1,2.14.31c.49.22,1.7,1.38.69,1.71a1.67,1.67,0,0,1-.59,0c-2.13,0-4.24,0-6.37,0H89.12c-1.34,0-2.89.11-3.68,1.18a4.15,4.15,0,0,0-.61,2.13,53.54,53.54,0,0,0,.06,10.74,4.46,4.46,0,0,0,.78,2.46c1.44,1.74,4.76,1.42,6.76,1.47,3.22.07,6.44-.15,9.66-.09,1,0,2,.07,3,.16.77.08,1.79.5,1.61,1.25A.75.75,0,0,1,106.37,94.07Zm584.45,19c0-4.38,0-2.36,0-3.43,0-1.91,0-3.67,0-5.72,0-3.19.22-6.61.23-9.8,0-4.31-.2-8.61-.2-12.92-.08-2.12-.21-4.25-.39-6.37v-.13l0-.38c-.07-.71-.13-2.25.93-2.21a1.15,1.15,0,0,1,.85.47c.69.89.49,2,.49,3.07q.06,13.09,0,26.19c0,3,0,6,0,9,0,1.52,0,3,.06,4.55,0,.94.21,2.51-.59,3.21-1.35,1.17-2.3-1.32-2.89-2.13Q681.61,105.9,674,95.3l-7.63-10.61q-2.08-2.91-4.19-5.81a40.29,40.29,0,0,1-3.7-5.49c-.52-1,1.28-1.52,1.91-.86a6.18,6.18,0,0,1,.89,1.56,21,21,0,0,0,1.9,2.81L667,82.19l7.69,10.59q3.81,5.25,7.61,10.49l3.85,5.3c1,1.3,1.89,2.57,2.71,4C689.29,113.26,690.83,114.23,690.82,113.1ZM660,87.26a1,1,0,0,0-.14.57c0,4,.09,8.08.09,12.13v13.1c0,.48,0,5.77,0,5.77h-1.62v-7.53c0-8.62.25-17.28,0-25.9,0-1-.54-2.74.59-3.27s1.73.55,2.22,1.23q7.59,10.63,15.13,21.3l5,7,2.49,3.52c.46.64,2.28,3.44.76,4-.83.3-1.53-1.19-1.82-1.72a33,33,0,0,0-2.16-3.31l-3.8-5.27q-3.75-5.24-7.52-10.46c-1.49-2-2.89-4-4.34-6-.68-1-1.38-1.89-2-2.86C662.52,89.12,660.86,86.11,660,87.26Zm-57.76,6a2.34,2.34,0,0,1-1.24.27l-18.35-.07a2.35,2.35,0,0,0-1.57.36,2.27,2.27,0,0,0,.17,3.21,4.61,4.61,0,0,0,2.34.2l2.82,0,5.64,0c2,0,3.91,0,5.87-.07,1.7,0,3.65-.37,5,.87a.57.57,0,0,1,.23.54.48.48,0,0,1-.14.25c-.81.91-2.2,1-3.32,1-1.62.07-3.26,0-4.89,0q-4.89,0-9.77-.18c-.74,0-1.47,0-2.21,0s-1.35,0-1.84.47a2.53,2.53,0,0,0-.46,1.78l0,11.94a2.84,2.84,0,0,0,.3,1.56c.51.78,1.6.86,2.53.86l22.59-.09a3.91,3.91,0,0,1,2.3.47,1.34,1.34,0,0,1,.27,2,1.88,1.88,0,0,1-1.22.28H582a2.8,2.8,0,0,1-3.53-3.35c0-6.52,0-13,0-19.56s0-13.12,0-19.67V74.16a2.86,2.86,0,0,1,.25-1.62,3.12,3.12,0,0,1,2.8-1.07H605.8a5.13,5.13,0,0,1,2.14.3c.49.22,1.7,1.38.69,1.71a1.72,1.72,0,0,1-.6,0c-2.12,0-4.24,0-6.36,0h-9.82c-.75,0-1.51,0-2.26,0H585c-1.34,0-2.89.11-3.68,1.19a4.1,4.1,0,0,0-.62,2.12,54.39,54.39,0,0,0,.07,10.75,4.45,4.45,0,0,0,.78,2.45c1.44,1.74,4.75,1.43,6.76,1.47,3.22.07,6.44-.15,9.66-.09,1,0,2,.07,3,.16.77.08,1.78.5,1.61,1.25A.81.81,0,0,1,602.24,93.27Zm40.26-.15a2.32,2.32,0,0,1-1.24.28l-18.35-.08a2.41,2.41,0,0,0-1.57.37,2.27,2.27,0,0,0,.17,3.2,4.5,4.5,0,0,0,2.34.2l2.82,0,5.65,0c1.95,0,3.91,0,5.86-.06,1.7,0,3.66-.38,5,.87a.61.61,0,0,1,.23.54.62.62,0,0,1-.14.25c-.81.9-2.2,1-3.33,1-1.62.07-3.26,0-4.88,0q-4.89,0-9.78-.18c-.74,0-1.47,0-2.21,0s-1.34-.05-1.84.47a2.54,2.54,0,0,0-.46,1.78v11.95a2.69,2.69,0,0,0,.3,1.56c.5.78,1.59.85,2.52.85l22.6-.08a3.82,3.82,0,0,1,2.29.47,1.34,1.34,0,0,1,.28,2,2,2,0,0,1-1.23.27h-25.3a3.69,3.69,0,0,1-2.93-.85,3.74,3.74,0,0,1-.6-2.49q0-9.78,0-19.57t0-19.67c0-.75,0-1.5,0-2.26A2.75,2.75,0,0,1,619,72.4a3.13,3.13,0,0,1,2.8-1.08h24.27a5.11,5.11,0,0,1,2.13.31c.49.22,1.7,1.38.69,1.71a1.94,1.94,0,0,1-.59,0c-2.12,0-4.24,0-6.36,0H625.25c-1.34,0-2.88.1-3.68,1.18a4.2,4.2,0,0,0-.61,2.13A55.06,55.06,0,0,0,621,87.42a4.47,4.47,0,0,0,.79,2.46c1.43,1.73,4.75,1.42,6.75,1.46,3.22.07,6.44-.15,9.66-.08,1,0,2,.07,3,.16.77.07,1.79.49,1.61,1.25A.74.74,0,0,1,642.5,93.12ZM347.24,35.65a.8.8,0,1,1-1.58,0,.8.8,0,1,1,1.58,0Zm0,3.16a.8.8,0,1,1-.79-1A.89.89,0,0,1,347.24,38.81ZM332.39,46.1a1,1,0,1,1-1-1.23A1.14,1.14,0,0,1,332.39,46.1Zm7.06,0a1,1,0,1,1-1-1.23A1.14,1.14,0,0,1,339.45,46.1Zm14,0a1,1,0,1,1,1,1.23A1.14,1.14,0,0,1,353.45,46.1Zm6.82,0a1,1,0,1,1,1,1.23A1.14,1.14,0,0,1,360.27,46.1Zm-13-13.6a.8.8,0,1,1-.79-.95A.89.89,0,0,1,347.24,32.5ZM345.89,30a1.08,1.08,0,0,1,0-1.34.72.72,0,0,1,1.12,0A1.08,1.08,0,0,1,347,30,.7.7,0,0,1,345.89,30Zm0-3.15a1.08,1.08,0,0,1,0-1.34.7.7,0,0,1,1.12,0,1.08,1.08,0,0,1,0,1.34A.7.7,0,0,1,345.89,26.86Zm27.18-4.26c-1.83-6-6.89-10.88-12.86-10.73-6.81.17-10.65,6.8-11.3,8l0,0,0-1a1.14,1.14,0,0,0-.12-.48,1.78,1.78,0,0,0,.49-1.2,1.88,1.88,0,0,0-.76-1.46,3.78,3.78,0,0,0,.76-2.33c0-1.55-.72-5.92-1.82-7.33,0-.27-.07-.52-.1-.74.15.1.33.24.57.43.08.06.16,0,.22-.07a.83.83,0,0,0,.11-.45V2.14a.89.89,0,0,0-.11-.46c-.06-.1-.14-.13-.22-.07a4.45,4.45,0,0,1-.57.43c0-.35.1-.76.19-1.29a1.24,1.24,0,0,0,0-.51c0-.15-.12-.24-.2-.24h-1.4c-.08,0-.15.09-.2.24a1.44,1.44,0,0,0,0,.51c.09.53.15.94.19,1.29a6.51,6.51,0,0,1-.57-.43c-.07-.06-.16,0-.22.07a.89.89,0,0,0-.11.46V5.3a.89.89,0,0,0,.11.46c.06.1.15.13.22.06.24-.19.42-.33.57-.43,0,.34-.1.74-.18,1.25a19,19,0,0,0-1.77,6.82,3.84,3.84,0,0,0,.75,2.33,1.9,1.9,0,0,0-.75,1.46,1.76,1.76,0,0,0,.29.93,1.14,1.14,0,0,0-.28.75l0,.85c-.93-1.67-4.71-7.63-11.17-7.79-6-.15-11,4.72-12.85,10.73-2.26,7.38.44,16.21,6.68,20.69l1.29,6.17a1.06,1.06,0,0,0,1,1.14H364a1.06,1.06,0,0,0,1-1.14l1.29-6.16C372.58,39,375.34,30.05,373.07,22.6Zm-12.13-8.2c4.89.32,8.54,4.51,10,8.83,1.69,4.93.46,10.9-2.68,15.42a17,17,0,0,0,2.15-8.35c0-8-5.21-14.47-11.62-14.47a12,12,0,0,0-4.8,1A10,10,0,0,1,360.94,14.4Zm-14.4,32.84a.88.88,0,0,1-.76-1,.78.78,0,1,1,.76,1ZM324.23,30.3c0-7.63,4.93-12.19,9.69-12.19,3.44,0,5.38,1.35,7.44,2.78a25.56,25.56,0,0,0,2.42,1.54l-.43,16-1.47-3.06A2.35,2.35,0,0,0,339.74,34h0a2.35,2.35,0,0,0-2.14,1.34l-1.83,3.83L334,35.59a2.35,2.35,0,0,0-2.14-1.34h0a2.35,2.35,0,0,0-2.14,1.34l-2,4.18A14,14,0,0,1,324.23,30.3Zm21.55-13a.57.57,0,0,1,.32-.48,2.22,2.22,0,0,0,.44.06,2.12,2.12,0,0,0,.44-.06.58.58,0,0,1,.33.48.67.67,0,0,1-.63.58h-.27C346.05,17.77,345.78,17.54,345.78,17.25Zm-.31,2.94h2.13l-.07,21.27H345.2ZM330.08,40.72l1.82-3.8,1.82,3.8Zm7.84-.22,1.82-3.79,1.82,3.79Zm11-18.07a25.56,25.56,0,0,0,2.42-1.54c2.05-1.43,4-2.78,7.44-2.78,4.76,0,9.68,4.56,9.68,12.19a13.89,13.89,0,0,1-3.81,9.76l-2.24-4.68a2.38,2.38,0,0,0-4.28,0l-1.83,3.83-1.73-3.62a2.35,2.35,0,0,0-2.14-1.34h0a2.35,2.35,0,0,0-2.14,1.34l-1,2Zm1.69,18.29,1.82-3.8,1.82,3.8Zm7.84-.22,1.82-3.79,1.82,3.79ZM346.71,15.15c-.42,0-1-2-1-2.53s.63-3.79,1-3.79,1.06,3.26,1.06,3.79S347.13,15.15,346.71,15.15Zm-24.78,8.2c1.48-4.32,5.13-8.52,10-8.84a10,10,0,0,1,6.8,2.29,11.78,11.78,0,0,0-4.83-1c-6.41,0-11.63,6.49-11.63,14.47a16.5,16.5,0,0,0,4,11A17.83,17.83,0,0,1,321.93,23.35Zm4.75,18.39v0S326.69,41.74,326.68,41.74Zm1.59,2H344.8a3.74,3.74,0,0,0-.93,2.54,3.79,3.79,0,0,0,.64,2.15h-15.4Zm35,4.69H348.58a3.87,3.87,0,0,0,.64-2.15,3.75,3.75,0,0,0-.94-2.54h16.18ZM275.86,72a1.1,1.1,0,0,1,1.27.48c.43.71.13,1.73.08,2.5-.28,4.24-.07,8.53-.06,12.77s0,8.73,0,13.1c0,3.89,0,7.77-.11,11.66-.05,3.24.64,4.41,4.11,4.22,3-.16,6-.18,9-.16l5.59,0c.72,0,1.45-.09,2.17-.08.23,0,.78-.07,1,.1s.36,1.6.45,2a.49.49,0,0,1,0,.27c-.18.31-1.51.07-1.82.07-4.14-.07-8.28.06-12.43,0s-8.29,0-12.44.11c-3.05.09-3.76-1.1-3.74-3.84.08-13.33,0-26.66.06-40,0-1.11-.55-3.06,1.29-2.93.81,0,1.06.52,1.09,1.23.05,1.09,0,2.18,0,3.27V96.46l0,17.53a2.93,2.93,0,0,0,.62,2.22,1.61,1.61,0,0,0,2.53-.61,2.93,2.93,0,0,0,.11-1v-40a4.12,4.12,0,0,1,.31-1.91A1.66,1.66,0,0,1,275.86,72Z"/></g></g></svg>